<mxfile host="app.diagrams.net" agent="Mozilla/5.0 (Windows NT 6.1) AppleWebKit/537.36 (KHTML, like Gecko) Chrome/109.0.0.0 Safari/537.36 Edg/109.0.1518.140" version="24.7.16">
  <diagram name="Page-1" id="7e0a89b8-554c-2b80-1dc8-d5c74ca68de4">
    <mxGraphModel dx="1146" dy="699" grid="1" gridSize="10" guides="1" tooltips="1" connect="1" arrows="1" fold="1" page="1" pageScale="1" pageWidth="2336" pageHeight="1654" background="none" math="0" shadow="0">
      <root>
        <mxCell id="0" />
        <mxCell id="1" parent="0" />
        <mxCell id="1cb643a89b7d889d-12" style="edgeStyle=orthogonalEdgeStyle;rounded=0;html=1;exitPerimeter=0;entryX=0;entryY=0.5;entryPerimeter=0;labelBackgroundColor=none;startArrow=none;startFill=0;startSize=5;endArrow=none;endFill=0;endSize=5;jettySize=auto;orthogonalLoop=1;strokeWidth=1;fontFamily=Verdana;fontSize=12;" parent="1" source="VuVPS5KJBOoQBnHny8Ev-2" target="1cb643a89b7d889d-2" edge="1">
          <mxGeometry relative="1" as="geometry" />
        </mxCell>
        <mxCell id="1cb643a89b7d889d-1" value="40&amp;nbsp;&lt;b&gt;Ω&lt;/b&gt;" style="verticalLabelPosition=bottom;shadow=0;dashed=0;align=center;html=1;verticalAlign=top;strokeWidth=1;shape=mxgraph.electrical.resistors.resistor_2;rounded=1;comic=0;labelBackgroundColor=none;fontFamily=Verdana;fontSize=12" parent="1" vertex="1">
          <mxGeometry x="322" y="120" width="100" height="20" as="geometry" />
        </mxCell>
        <mxCell id="1cb643a89b7d889d-15" style="edgeStyle=orthogonalEdgeStyle;rounded=0;html=1;exitX=1;exitY=0.5;exitPerimeter=0;labelBackgroundColor=none;startArrow=none;startFill=0;startSize=5;endArrow=none;endFill=0;endSize=5;jettySize=auto;orthogonalLoop=1;strokeWidth=1;fontFamily=Verdana;fontSize=12;" parent="1" source="1cb643a89b7d889d-2" target="VuVPS5KJBOoQBnHny8Ev-1" edge="1">
          <mxGeometry relative="1" as="geometry">
            <mxPoint x="612" y="170" as="targetPoint" />
            <Array as="points">
              <mxPoint x="582" y="130" />
              <mxPoint x="582" y="200" />
              <mxPoint x="680" y="200" />
            </Array>
          </mxGeometry>
        </mxCell>
        <mxCell id="1cb643a89b7d889d-2" value="20&amp;nbsp;&lt;b&gt;Ω&lt;/b&gt;" style="verticalLabelPosition=bottom;shadow=0;dashed=0;align=center;html=1;verticalAlign=top;strokeWidth=1;shape=mxgraph.electrical.resistors.resistor_2;rounded=1;comic=0;labelBackgroundColor=none;fontFamily=Verdana;fontSize=12" parent="1" vertex="1">
          <mxGeometry x="462" y="120" width="100" height="20" as="geometry" />
        </mxCell>
        <mxCell id="1cb643a89b7d889d-13" style="edgeStyle=orthogonalEdgeStyle;rounded=0;html=1;exitX=1;exitY=0.5;exitPerimeter=0;labelBackgroundColor=none;startArrow=none;startFill=0;startSize=5;endArrow=none;endFill=0;endSize=5;jettySize=auto;orthogonalLoop=1;strokeWidth=1;fontFamily=Verdana;fontSize=12" parent="1" source="1cb643a89b7d889d-3" target="VuVPS5KJBOoQBnHny8Ev-8" edge="1">
          <mxGeometry relative="1" as="geometry" />
        </mxCell>
        <mxCell id="1cb643a89b7d889d-3" value="70&amp;nbsp;&lt;b&gt;Ω&lt;/b&gt;" style="verticalLabelPosition=bottom;shadow=0;dashed=0;align=center;html=1;verticalAlign=top;strokeWidth=1;shape=mxgraph.electrical.resistors.resistor_2;rounded=1;comic=0;labelBackgroundColor=none;fontFamily=Verdana;fontSize=12" parent="1" vertex="1">
          <mxGeometry x="322" y="210" width="100" height="20" as="geometry" />
        </mxCell>
        <mxCell id="1cb643a89b7d889d-10" style="edgeStyle=orthogonalEdgeStyle;rounded=0;html=1;entryX=0;entryY=0.5;entryPerimeter=0;labelBackgroundColor=none;startArrow=none;startFill=0;startSize=5;endArrow=none;endFill=0;endSize=5;jettySize=auto;orthogonalLoop=1;strokeWidth=1;fontFamily=Verdana;fontSize=12" parent="1" source="VuVPS5KJBOoQBnHny8Ev-4" target="1cb643a89b7d889d-1" edge="1">
          <mxGeometry relative="1" as="geometry">
            <Array as="points">
              <mxPoint x="290" y="170" />
              <mxPoint x="290" y="130" />
            </Array>
          </mxGeometry>
        </mxCell>
        <mxCell id="1cb643a89b7d889d-11" style="edgeStyle=orthogonalEdgeStyle;rounded=0;html=1;entryX=0;entryY=0.5;entryPerimeter=0;labelBackgroundColor=none;startArrow=none;startFill=0;startSize=5;endArrow=none;endFill=0;endSize=5;jettySize=auto;orthogonalLoop=1;strokeWidth=1;fontFamily=Verdana;fontSize=12;" parent="1" source="VuVPS5KJBOoQBnHny8Ev-4" target="1cb643a89b7d889d-3" edge="1">
          <mxGeometry relative="1" as="geometry">
            <Array as="points">
              <mxPoint x="290" y="170" />
              <mxPoint x="290" y="220" />
            </Array>
          </mxGeometry>
        </mxCell>
        <mxCell id="1cb643a89b7d889d-5" value="50&amp;nbsp;&lt;b&gt;Ω&lt;/b&gt;" style="verticalLabelPosition=bottom;shadow=0;dashed=0;align=center;html=1;verticalAlign=top;strokeWidth=1;shape=mxgraph.electrical.resistors.resistor_2;rounded=1;comic=0;labelBackgroundColor=none;fontFamily=Verdana;fontSize=12;" parent="1" vertex="1">
          <mxGeometry x="162" y="160" width="100" height="20" as="geometry" />
        </mxCell>
        <mxCell id="1cb643a89b7d889d-9" style="edgeStyle=orthogonalEdgeStyle;rounded=0;html=1;labelBackgroundColor=none;startArrow=none;startFill=0;startSize=5;endArrow=none;endFill=0;endSize=5;jettySize=auto;orthogonalLoop=1;strokeWidth=1;fontFamily=Verdana;fontSize=12" parent="1" target="VuVPS5KJBOoQBnHny8Ev-5" edge="1">
          <mxGeometry relative="1" as="geometry">
            <Array as="points">
              <mxPoint x="122" y="300" />
            </Array>
            <mxPoint x="150" y="340" as="sourcePoint" />
          </mxGeometry>
        </mxCell>
        <mxCell id="1cb643a89b7d889d-6" value="20&amp;nbsp;&lt;b&gt;Ω&lt;/b&gt;" style="verticalLabelPosition=bottom;shadow=0;dashed=0;align=center;html=1;verticalAlign=top;strokeWidth=1;shape=mxgraph.electrical.resistors.resistor_2;rounded=1;comic=0;labelBackgroundColor=none;fontFamily=Verdana;fontSize=12" parent="1" vertex="1">
          <mxGeometry x="462" y="590" width="100" height="20" as="geometry" />
        </mxCell>
        <mxCell id="1cb643a89b7d889d-8" style="edgeStyle=orthogonalEdgeStyle;rounded=0;html=1;exitX=1;exitY=0.5;exitPerimeter=0;labelBackgroundColor=none;startArrow=none;startFill=0;startSize=5;endArrow=none;endFill=0;endSize=5;jettySize=auto;orthogonalLoop=1;strokeWidth=1;fontFamily=Verdana;fontSize=12" parent="1" source="1cb643a89b7d889d-7" edge="1">
          <mxGeometry relative="1" as="geometry">
            <mxPoint x="270" y="300" as="targetPoint" />
          </mxGeometry>
        </mxCell>
        <mxCell id="1cb643a89b7d889d-16" style="edgeStyle=orthogonalEdgeStyle;rounded=0;html=1;exitX=0;exitY=0.5;exitPerimeter=0;labelBackgroundColor=none;startArrow=none;startFill=0;startSize=5;endArrow=none;endFill=0;endSize=5;jettySize=auto;orthogonalLoop=1;strokeWidth=1;fontFamily=Verdana;fontSize=12;exitDx=0;exitDy=0;" parent="1" source="1cb643a89b7d889d-7" edge="1">
          <mxGeometry relative="1" as="geometry">
            <mxPoint x="670" y="300" as="targetPoint" />
            <Array as="points">
              <mxPoint x="600" y="300" />
              <mxPoint x="600" y="300" />
            </Array>
            <mxPoint x="730" y="224" as="sourcePoint" />
          </mxGeometry>
        </mxCell>
        <mxCell id="1cb643a89b7d889d-7" value="5 V" style="verticalLabelPosition=bottom;shadow=0;dashed=0;align=center;fillColor=default;html=1;verticalAlign=top;strokeWidth=1;shape=mxgraph.electrical.miscellaneous.monocell_battery;rounded=1;comic=0;labelBackgroundColor=none;fontFamily=Verdana;fontSize=12;flipH=1;" parent="1" vertex="1">
          <mxGeometry x="442" y="270" width="100" height="60" as="geometry" />
        </mxCell>
        <mxCell id="VuVPS5KJBOoQBnHny8Ev-1" value="B" style="shape=waypoint;sketch=0;fillStyle=solid;size=6;pointerEvents=1;points=[];fillColor=none;resizable=0;rotatable=0;perimeter=centerPerimeter;snapToPoint=1;verticalAlign=top;spacingBottom=0;spacingTop=-5;fontFamily=Verdana;fontSize=12;" parent="1" vertex="1">
          <mxGeometry x="660" y="130" width="40" height="40" as="geometry" />
        </mxCell>
        <mxCell id="VuVPS5KJBOoQBnHny8Ev-2" value="C" style="shape=waypoint;sketch=0;fillStyle=solid;size=6;pointerEvents=1;points=[];fillColor=none;resizable=0;rotatable=0;perimeter=centerPerimeter;snapToPoint=1;verticalAlign=top;spacingBottom=0;spacingTop=-5;fontFamily=Verdana;fontSize=12;" parent="1" vertex="1">
          <mxGeometry x="423" y="110" width="40" height="40" as="geometry" />
        </mxCell>
        <mxCell id="VuVPS5KJBOoQBnHny8Ev-3" value="" style="edgeStyle=orthogonalEdgeStyle;rounded=0;html=1;exitX=1;exitY=0.5;exitPerimeter=0;entryPerimeter=0;labelBackgroundColor=none;startArrow=none;startFill=0;startSize=5;endArrow=none;endFill=0;endSize=5;jettySize=auto;orthogonalLoop=1;strokeWidth=1;fontFamily=Verdana;fontSize=12;" parent="1" source="1cb643a89b7d889d-1" target="VuVPS5KJBOoQBnHny8Ev-2" edge="1">
          <mxGeometry relative="1" as="geometry">
            <mxPoint x="422" y="130.00000000000006" as="sourcePoint" />
            <mxPoint x="462" y="130.00000000000006" as="targetPoint" />
          </mxGeometry>
        </mxCell>
        <mxCell id="VuVPS5KJBOoQBnHny8Ev-4" value="A" style="shape=waypoint;sketch=0;fillStyle=solid;size=6;pointerEvents=1;points=[];fillColor=none;resizable=0;rotatable=0;perimeter=centerPerimeter;snapToPoint=1;verticalAlign=top;spacingBottom=0;spacingTop=-5;fontFamily=Verdana;fontSize=12;" parent="1" vertex="1">
          <mxGeometry x="242" y="150" width="40" height="40" as="geometry" />
        </mxCell>
        <mxCell id="VuVPS5KJBOoQBnHny8Ev-5" value="E" style="shape=waypoint;sketch=0;fillStyle=solid;size=6;pointerEvents=1;points=[];fillColor=none;resizable=0;rotatable=0;perimeter=centerPerimeter;snapToPoint=1;verticalAlign=middle;spacingBottom=0;spacingTop=0;fontFamily=Verdana;fontSize=12;labelPosition=center;verticalLabelPosition=middle;align=left;spacingRight=0;spacingLeft=6;" parent="1" vertex="1">
          <mxGeometry x="102" y="214" width="40" height="40" as="geometry" />
        </mxCell>
        <mxCell id="VuVPS5KJBOoQBnHny8Ev-7" style="edgeStyle=orthogonalEdgeStyle;rounded=0;html=1;labelBackgroundColor=none;startArrow=none;startFill=0;startSize=5;endArrow=none;endFill=0;endSize=5;jettySize=auto;orthogonalLoop=1;strokeWidth=1;fontFamily=Verdana;fontSize=12;entryX=0;entryY=0.5;entryDx=0;entryDy=0;entryPerimeter=0;" parent="1" source="VuVPS5KJBOoQBnHny8Ev-5" target="1cb643a89b7d889d-5" edge="1">
          <mxGeometry relative="1" as="geometry">
            <Array as="points">
              <mxPoint x="122" y="170" />
            </Array>
            <mxPoint x="172" y="310" as="sourcePoint" />
            <mxPoint x="132" y="244" as="targetPoint" />
          </mxGeometry>
        </mxCell>
        <mxCell id="VuVPS5KJBOoQBnHny8Ev-8" value="D" style="shape=waypoint;sketch=0;fillStyle=solid;size=6;pointerEvents=1;points=[];fillColor=none;resizable=0;rotatable=0;perimeter=centerPerimeter;snapToPoint=1;verticalAlign=top;spacingBottom=0;spacingTop=-5;fontFamily=Verdana;fontSize=12;" parent="1" vertex="1">
          <mxGeometry x="422" y="200" width="40" height="40" as="geometry" />
        </mxCell>
        <mxCell id="VuVPS5KJBOoQBnHny8Ev-9" style="edgeStyle=orthogonalEdgeStyle;rounded=0;html=1;labelBackgroundColor=none;startArrow=none;startFill=0;startSize=5;endArrow=none;endFill=0;endSize=5;jettySize=auto;orthogonalLoop=1;strokeWidth=1;fontFamily=Verdana;fontSize=12;" parent="1" source="VuVPS5KJBOoQBnHny8Ev-8" edge="1">
          <mxGeometry relative="1" as="geometry">
            <mxPoint x="432" y="230" as="sourcePoint" />
            <mxPoint x="530" y="250" as="targetPoint" />
          </mxGeometry>
        </mxCell>
        <mxCell id="kQlwVw8OVMAgD6LODriY-2" value="&lt;span style=&quot;font-size: 14px;&quot;&gt;Temp/RL Sensor&lt;/span&gt;" style="verticalLabelPosition=middle;shadow=0;dashed=0;align=center;html=1;verticalAlign=middle;strokeWidth=1;shape=ellipse;fontSize=32;perimeter=ellipsePerimeter;" parent="1" vertex="1">
          <mxGeometry x="800" y="650" width="100" height="100" as="geometry" />
        </mxCell>
        <mxCell id="X7Br8QIvCN059I1vGeU9-105" style="edgeStyle=orthogonalEdgeStyle;rounded=0;orthogonalLoop=1;jettySize=auto;html=1;exitX=0.5;exitY=1;exitDx=0;exitDy=0;exitPerimeter=0;endArrow=none;endFill=0;strokeColor=#0000FF;" edge="1" parent="1" source="kQlwVw8OVMAgD6LODriY-3">
          <mxGeometry relative="1" as="geometry">
            <mxPoint x="1195" y="640" as="targetPoint" />
            <mxPoint x="1035" y="529.9999999999999" as="sourcePoint" />
            <Array as="points">
              <mxPoint x="1030" y="580" />
              <mxPoint x="1195" y="580" />
            </Array>
          </mxGeometry>
        </mxCell>
        <mxCell id="kQlwVw8OVMAgD6LODriY-3" value="10K&lt;span style=&quot;background-color: initial;&quot;&gt;&amp;nbsp;&lt;/span&gt;&lt;b style=&quot;background-color: initial; font-family: Verdana;&quot;&gt;Ω&lt;/b&gt;" style="pointerEvents=1;verticalLabelPosition=bottom;shadow=0;dashed=0;align=center;html=1;verticalAlign=top;shape=mxgraph.electrical.resistors.potentiometer_1;" parent="1" vertex="1">
          <mxGeometry x="980" y="490" width="100" height="40" as="geometry" />
        </mxCell>
        <mxCell id="kQlwVw8OVMAgD6LODriY-5" value="" style="verticalLabelPosition=bottom;shadow=0;dashed=0;align=center;html=1;verticalAlign=top;shape=mxgraph.electrical.transmission.cable_group;pointerEvents=1;" parent="1" vertex="1">
          <mxGeometry x="330" y="420" width="120" height="136" as="geometry" />
        </mxCell>
        <mxCell id="X7Br8QIvCN059I1vGeU9-3" value="Arduino" style="rounded=0;whiteSpace=wrap;html=1;" vertex="1" parent="1">
          <mxGeometry x="1160" y="200" width="240" height="200" as="geometry" />
        </mxCell>
        <mxCell id="X7Br8QIvCN059I1vGeU9-4" value="" style="endArrow=none;html=1;rounded=0;" edge="1" parent="1">
          <mxGeometry width="50" height="50" relative="1" as="geometry">
            <mxPoint x="1389.63" y="210" as="sourcePoint" />
            <mxPoint x="1390" y="190" as="targetPoint" />
          </mxGeometry>
        </mxCell>
        <mxCell id="X7Br8QIvCN059I1vGeU9-5" value="PWM 0" style="text;html=1;align=center;verticalAlign=middle;whiteSpace=wrap;rounded=0;rotation=-90;" vertex="1" parent="1">
          <mxGeometry x="1360" y="219" width="60" height="30" as="geometry" />
        </mxCell>
        <mxCell id="X7Br8QIvCN059I1vGeU9-6" value="PWM 13" style="text;html=1;align=center;verticalAlign=middle;whiteSpace=wrap;rounded=0;rotation=-90;" vertex="1" parent="1">
          <mxGeometry x="1230" y="224" width="60" height="30" as="geometry" />
        </mxCell>
        <mxCell id="X7Br8QIvCN059I1vGeU9-7" value="" style="endArrow=none;html=1;rounded=0;" edge="1" parent="1">
          <mxGeometry width="50" height="50" relative="1" as="geometry">
            <mxPoint x="1380" y="210" as="sourcePoint" />
            <mxPoint x="1380.37" y="190" as="targetPoint" />
          </mxGeometry>
        </mxCell>
        <mxCell id="X7Br8QIvCN059I1vGeU9-8" value="" style="endArrow=none;html=1;rounded=0;" edge="1" parent="1">
          <mxGeometry width="50" height="50" relative="1" as="geometry">
            <mxPoint x="1369.63" y="210" as="sourcePoint" />
            <mxPoint x="1370" y="190" as="targetPoint" />
          </mxGeometry>
        </mxCell>
        <mxCell id="X7Br8QIvCN059I1vGeU9-9" value="" style="endArrow=none;html=1;rounded=0;" edge="1" parent="1">
          <mxGeometry width="50" height="50" relative="1" as="geometry">
            <mxPoint x="1360" y="210" as="sourcePoint" />
            <mxPoint x="1360.37" y="190" as="targetPoint" />
          </mxGeometry>
        </mxCell>
        <mxCell id="X7Br8QIvCN059I1vGeU9-10" value="" style="endArrow=none;html=1;rounded=0;" edge="1" parent="1">
          <mxGeometry width="50" height="50" relative="1" as="geometry">
            <mxPoint x="1349.63" y="210" as="sourcePoint" />
            <mxPoint x="1350" y="190" as="targetPoint" />
          </mxGeometry>
        </mxCell>
        <mxCell id="X7Br8QIvCN059I1vGeU9-11" value="" style="endArrow=none;html=1;rounded=0;" edge="1" parent="1">
          <mxGeometry width="50" height="50" relative="1" as="geometry">
            <mxPoint x="1340" y="210" as="sourcePoint" />
            <mxPoint x="1340.37" y="190" as="targetPoint" />
          </mxGeometry>
        </mxCell>
        <mxCell id="X7Br8QIvCN059I1vGeU9-12" value="" style="endArrow=none;html=1;rounded=0;" edge="1" parent="1">
          <mxGeometry width="50" height="50" relative="1" as="geometry">
            <mxPoint x="1329.63" y="210" as="sourcePoint" />
            <mxPoint x="1330" y="190" as="targetPoint" />
          </mxGeometry>
        </mxCell>
        <mxCell id="X7Br8QIvCN059I1vGeU9-13" value="" style="endArrow=none;html=1;rounded=0;" edge="1" parent="1">
          <mxGeometry width="50" height="50" relative="1" as="geometry">
            <mxPoint x="1320" y="210" as="sourcePoint" />
            <mxPoint x="1320.37" y="190" as="targetPoint" />
          </mxGeometry>
        </mxCell>
        <mxCell id="X7Br8QIvCN059I1vGeU9-14" value="" style="endArrow=none;html=1;rounded=0;" edge="1" parent="1">
          <mxGeometry width="50" height="50" relative="1" as="geometry">
            <mxPoint x="1309.63" y="210" as="sourcePoint" />
            <mxPoint x="1310" y="190" as="targetPoint" />
          </mxGeometry>
        </mxCell>
        <mxCell id="X7Br8QIvCN059I1vGeU9-15" value="" style="endArrow=none;html=1;rounded=0;" edge="1" parent="1">
          <mxGeometry width="50" height="50" relative="1" as="geometry">
            <mxPoint x="1300" y="210" as="sourcePoint" />
            <mxPoint x="1300.37" y="190" as="targetPoint" />
          </mxGeometry>
        </mxCell>
        <mxCell id="X7Br8QIvCN059I1vGeU9-16" value="" style="endArrow=none;html=1;rounded=0;" edge="1" parent="1">
          <mxGeometry width="50" height="50" relative="1" as="geometry">
            <mxPoint x="1289.63" y="210" as="sourcePoint" />
            <mxPoint x="1290" y="190" as="targetPoint" />
          </mxGeometry>
        </mxCell>
        <mxCell id="X7Br8QIvCN059I1vGeU9-17" value="" style="endArrow=none;html=1;rounded=0;" edge="1" parent="1">
          <mxGeometry width="50" height="50" relative="1" as="geometry">
            <mxPoint x="1280" y="210" as="sourcePoint" />
            <mxPoint x="1280.37" y="190" as="targetPoint" />
          </mxGeometry>
        </mxCell>
        <mxCell id="X7Br8QIvCN059I1vGeU9-18" value="" style="endArrow=none;html=1;rounded=0;" edge="1" parent="1">
          <mxGeometry width="50" height="50" relative="1" as="geometry">
            <mxPoint x="1269.63" y="210" as="sourcePoint" />
            <mxPoint x="1270" y="190" as="targetPoint" />
          </mxGeometry>
        </mxCell>
        <mxCell id="X7Br8QIvCN059I1vGeU9-19" value="" style="endArrow=none;html=1;rounded=0;" edge="1" parent="1">
          <mxGeometry width="50" height="50" relative="1" as="geometry">
            <mxPoint x="1260" y="210" as="sourcePoint" />
            <mxPoint x="1260.37" y="190" as="targetPoint" />
          </mxGeometry>
        </mxCell>
        <mxCell id="X7Br8QIvCN059I1vGeU9-21" value="" style="endArrow=none;html=1;rounded=0;" edge="1" parent="1">
          <mxGeometry width="50" height="50" relative="1" as="geometry">
            <mxPoint x="1240" y="210" as="sourcePoint" />
            <mxPoint x="1240.37" y="190" as="targetPoint" />
          </mxGeometry>
        </mxCell>
        <mxCell id="X7Br8QIvCN059I1vGeU9-23" value="" style="endArrow=none;html=1;rounded=0;" edge="1" parent="1">
          <mxGeometry width="50" height="50" relative="1" as="geometry">
            <mxPoint x="1224.83" y="210" as="sourcePoint" />
            <mxPoint x="1224.83" y="190" as="targetPoint" />
          </mxGeometry>
        </mxCell>
        <mxCell id="X7Br8QIvCN059I1vGeU9-24" value="" style="endArrow=none;html=1;rounded=0;" edge="1" parent="1">
          <mxGeometry width="50" height="50" relative="1" as="geometry">
            <mxPoint x="1210" y="210" as="sourcePoint" />
            <mxPoint x="1210.37" y="190" as="targetPoint" />
          </mxGeometry>
        </mxCell>
        <mxCell id="X7Br8QIvCN059I1vGeU9-25" value="" style="endArrow=none;html=1;rounded=0;" edge="1" parent="1">
          <mxGeometry width="50" height="50" relative="1" as="geometry">
            <mxPoint x="1199.81" y="210" as="sourcePoint" />
            <mxPoint x="1200.1799999999998" y="190" as="targetPoint" />
          </mxGeometry>
        </mxCell>
        <mxCell id="X7Br8QIvCN059I1vGeU9-27" value="" style="endArrow=none;html=1;rounded=0;" edge="1" parent="1">
          <mxGeometry width="50" height="50" relative="1" as="geometry">
            <mxPoint x="1389.71" y="410" as="sourcePoint" />
            <mxPoint x="1390.08" y="390" as="targetPoint" />
          </mxGeometry>
        </mxCell>
        <mxCell id="X7Br8QIvCN059I1vGeU9-38" value="PWM 3" style="text;html=1;align=center;verticalAlign=middle;whiteSpace=wrap;rounded=0;rotation=-90;" vertex="1" parent="1">
          <mxGeometry x="1335" y="219" width="50" height="30" as="geometry" />
        </mxCell>
        <mxCell id="X7Br8QIvCN059I1vGeU9-39" value="PWM 9" style="text;html=1;align=center;verticalAlign=middle;whiteSpace=wrap;rounded=0;rotation=-90;" vertex="1" parent="1">
          <mxGeometry x="1276" y="219" width="50" height="30" as="geometry" />
        </mxCell>
        <mxCell id="X7Br8QIvCN059I1vGeU9-40" value="GND" style="text;html=1;align=center;verticalAlign=middle;whiteSpace=wrap;rounded=0;rotation=-90;" vertex="1" parent="1">
          <mxGeometry x="1215" y="219" width="50" height="30" as="geometry" />
        </mxCell>
        <mxCell id="X7Br8QIvCN059I1vGeU9-41" value="AREF" style="text;html=1;align=center;verticalAlign=middle;whiteSpace=wrap;rounded=0;rotation=-90;" vertex="1" parent="1">
          <mxGeometry x="1200" y="219" width="50" height="30" as="geometry" />
        </mxCell>
        <mxCell id="X7Br8QIvCN059I1vGeU9-42" value="" style="endArrow=none;html=1;rounded=0;" edge="1" parent="1">
          <mxGeometry width="50" height="50" relative="1" as="geometry">
            <mxPoint x="1380" y="410" as="sourcePoint" />
            <mxPoint x="1380.37" y="390" as="targetPoint" />
          </mxGeometry>
        </mxCell>
        <mxCell id="X7Br8QIvCN059I1vGeU9-43" value="" style="endArrow=none;html=1;rounded=0;" edge="1" parent="1">
          <mxGeometry width="50" height="50" relative="1" as="geometry">
            <mxPoint x="1369.71" y="410" as="sourcePoint" />
            <mxPoint x="1370.08" y="390" as="targetPoint" />
          </mxGeometry>
        </mxCell>
        <mxCell id="X7Br8QIvCN059I1vGeU9-44" value="" style="endArrow=none;html=1;rounded=0;" edge="1" parent="1">
          <mxGeometry width="50" height="50" relative="1" as="geometry">
            <mxPoint x="1360" y="410" as="sourcePoint" />
            <mxPoint x="1360.37" y="390" as="targetPoint" />
          </mxGeometry>
        </mxCell>
        <mxCell id="X7Br8QIvCN059I1vGeU9-45" value="" style="endArrow=none;html=1;rounded=0;" edge="1" parent="1">
          <mxGeometry width="50" height="50" relative="1" as="geometry">
            <mxPoint x="1349.71" y="410" as="sourcePoint" />
            <mxPoint x="1350.08" y="390" as="targetPoint" />
          </mxGeometry>
        </mxCell>
        <mxCell id="X7Br8QIvCN059I1vGeU9-46" value="" style="endArrow=none;html=1;rounded=0;" edge="1" parent="1">
          <mxGeometry width="50" height="50" relative="1" as="geometry">
            <mxPoint x="1340" y="410" as="sourcePoint" />
            <mxPoint x="1340.37" y="390" as="targetPoint" />
          </mxGeometry>
        </mxCell>
        <mxCell id="X7Br8QIvCN059I1vGeU9-48" value="" style="endArrow=none;html=1;rounded=0;" edge="1" parent="1">
          <mxGeometry width="50" height="50" relative="1" as="geometry">
            <mxPoint x="1320" y="410" as="sourcePoint" />
            <mxPoint x="1320.37" y="390" as="targetPoint" />
          </mxGeometry>
        </mxCell>
        <mxCell id="X7Br8QIvCN059I1vGeU9-49" value="" style="endArrow=none;html=1;rounded=0;" edge="1" parent="1">
          <mxGeometry width="50" height="50" relative="1" as="geometry">
            <mxPoint x="1309.71" y="410" as="sourcePoint" />
            <mxPoint x="1310.08" y="390" as="targetPoint" />
          </mxGeometry>
        </mxCell>
        <mxCell id="X7Br8QIvCN059I1vGeU9-50" value="" style="endArrow=none;html=1;rounded=0;" edge="1" parent="1">
          <mxGeometry width="50" height="50" relative="1" as="geometry">
            <mxPoint x="1300" y="410" as="sourcePoint" />
            <mxPoint x="1300.37" y="390" as="targetPoint" />
          </mxGeometry>
        </mxCell>
        <mxCell id="X7Br8QIvCN059I1vGeU9-51" value="" style="endArrow=none;html=1;rounded=0;" edge="1" parent="1">
          <mxGeometry width="50" height="50" relative="1" as="geometry">
            <mxPoint x="1289.71" y="410" as="sourcePoint" />
            <mxPoint x="1290.08" y="390" as="targetPoint" />
          </mxGeometry>
        </mxCell>
        <mxCell id="X7Br8QIvCN059I1vGeU9-52" value="" style="endArrow=none;html=1;rounded=0;" edge="1" parent="1">
          <mxGeometry width="50" height="50" relative="1" as="geometry">
            <mxPoint x="1280" y="410" as="sourcePoint" />
            <mxPoint x="1280.37" y="390" as="targetPoint" />
          </mxGeometry>
        </mxCell>
        <mxCell id="X7Br8QIvCN059I1vGeU9-53" value="A5" style="text;html=1;align=center;verticalAlign=middle;whiteSpace=wrap;rounded=0;rotation=-90;" vertex="1" parent="1">
          <mxGeometry x="1375" y="365" width="30" height="30" as="geometry" />
        </mxCell>
        <mxCell id="X7Br8QIvCN059I1vGeU9-54" value="A0" style="text;html=1;align=center;verticalAlign=middle;whiteSpace=wrap;rounded=0;rotation=-90;" vertex="1" parent="1">
          <mxGeometry x="1326" y="365" width="30" height="30" as="geometry" />
        </mxCell>
        <mxCell id="X7Br8QIvCN059I1vGeU9-55" value="Vin" style="text;html=1;align=center;verticalAlign=middle;whiteSpace=wrap;rounded=0;rotation=-90;" vertex="1" parent="1">
          <mxGeometry x="1305" y="362" width="30" height="30" as="geometry" />
        </mxCell>
        <mxCell id="X7Br8QIvCN059I1vGeU9-56" value="GND" style="text;html=1;align=center;verticalAlign=middle;whiteSpace=wrap;rounded=0;rotation=-90;" vertex="1" parent="1">
          <mxGeometry x="1289" y="358" width="44" height="30" as="geometry" />
        </mxCell>
        <mxCell id="X7Br8QIvCN059I1vGeU9-57" value="GND" style="text;html=1;align=center;verticalAlign=middle;whiteSpace=wrap;rounded=0;rotation=-90;" vertex="1" parent="1">
          <mxGeometry x="1279" y="358" width="44" height="30" as="geometry" />
        </mxCell>
        <mxCell id="X7Br8QIvCN059I1vGeU9-58" value="5V" style="text;html=1;align=center;verticalAlign=middle;whiteSpace=wrap;rounded=0;rotation=-90;" vertex="1" parent="1">
          <mxGeometry x="1269" y="364" width="44" height="30" as="geometry" />
        </mxCell>
        <mxCell id="X7Br8QIvCN059I1vGeU9-59" value="3,3V" style="text;html=1;align=center;verticalAlign=middle;whiteSpace=wrap;rounded=0;rotation=-90;" vertex="1" parent="1">
          <mxGeometry x="1259" y="358" width="44" height="30" as="geometry" />
        </mxCell>
        <mxCell id="X7Br8QIvCN059I1vGeU9-60" value="" style="endArrow=none;html=1;rounded=0;" edge="1" parent="1">
          <mxGeometry width="50" height="50" relative="1" as="geometry">
            <mxPoint x="1269" y="410" as="sourcePoint" />
            <mxPoint x="1269.37" y="390" as="targetPoint" />
          </mxGeometry>
        </mxCell>
        <mxCell id="X7Br8QIvCN059I1vGeU9-61" value="" style="endArrow=none;html=1;rounded=0;" edge="1" parent="1">
          <mxGeometry width="50" height="50" relative="1" as="geometry">
            <mxPoint x="1258.71" y="410" as="sourcePoint" />
            <mxPoint x="1259.08" y="390" as="targetPoint" />
          </mxGeometry>
        </mxCell>
        <mxCell id="X7Br8QIvCN059I1vGeU9-62" value="" style="endArrow=none;html=1;rounded=0;" edge="1" parent="1">
          <mxGeometry width="50" height="50" relative="1" as="geometry">
            <mxPoint x="1249" y="410" as="sourcePoint" />
            <mxPoint x="1249.37" y="390" as="targetPoint" />
          </mxGeometry>
        </mxCell>
        <mxCell id="X7Br8QIvCN059I1vGeU9-63" value="RESET" style="text;html=1;align=center;verticalAlign=middle;whiteSpace=wrap;rounded=0;rotation=-90;" vertex="1" parent="1">
          <mxGeometry x="1239" y="352" width="62" height="30" as="geometry" />
        </mxCell>
        <mxCell id="X7Br8QIvCN059I1vGeU9-64" value="IOREF" style="text;html=1;align=center;verticalAlign=middle;whiteSpace=wrap;rounded=0;rotation=-90;" vertex="1" parent="1">
          <mxGeometry x="1227" y="353" width="62" height="30" as="geometry" />
        </mxCell>
        <mxCell id="X7Br8QIvCN059I1vGeU9-65" value="&lt;span style=&quot;font-family: Verdana;&quot;&gt;220&amp;nbsp;&lt;/span&gt;&lt;b style=&quot;font-family: Verdana;&quot;&gt;Ω&lt;/b&gt;" style="pointerEvents=1;verticalLabelPosition=bottom;shadow=0;dashed=0;align=center;html=1;verticalAlign=top;shape=mxgraph.electrical.resistors.resistor_1;rotation=90;strokeColor=#FF0000;" vertex="1" parent="1">
          <mxGeometry x="1318.5" y="520" width="45" height="10" as="geometry" />
        </mxCell>
        <mxCell id="X7Br8QIvCN059I1vGeU9-66" value="LCD-Bildschirm" style="rounded=0;whiteSpace=wrap;html=1;" vertex="1" parent="1">
          <mxGeometry x="1160.5" y="642.88" width="239" height="120" as="geometry" />
        </mxCell>
        <mxCell id="X7Br8QIvCN059I1vGeU9-67" value="" style="endArrow=none;html=1;rounded=0;" edge="1" parent="1">
          <mxGeometry width="50" height="50" relative="1" as="geometry">
            <mxPoint x="1302.13" y="652.88" as="sourcePoint" />
            <mxPoint x="1302.5" y="632.88" as="targetPoint" />
          </mxGeometry>
        </mxCell>
        <mxCell id="X7Br8QIvCN059I1vGeU9-68" value="" style="endArrow=none;html=1;rounded=0;" edge="1" parent="1">
          <mxGeometry width="50" height="50" relative="1" as="geometry">
            <mxPoint x="1289.5" y="652.88" as="sourcePoint" />
            <mxPoint x="1289.87" y="632.88" as="targetPoint" />
          </mxGeometry>
        </mxCell>
        <mxCell id="X7Br8QIvCN059I1vGeU9-69" value="" style="endArrow=none;html=1;rounded=0;" edge="1" parent="1">
          <mxGeometry width="50" height="50" relative="1" as="geometry">
            <mxPoint x="1278.13" y="652.88" as="sourcePoint" />
            <mxPoint x="1278.5" y="632.88" as="targetPoint" />
          </mxGeometry>
        </mxCell>
        <mxCell id="X7Br8QIvCN059I1vGeU9-70" value="" style="endArrow=none;html=1;rounded=0;" edge="1" parent="1">
          <mxGeometry width="50" height="50" relative="1" as="geometry">
            <mxPoint x="1266.5" y="652.88" as="sourcePoint" />
            <mxPoint x="1266.87" y="632.88" as="targetPoint" />
          </mxGeometry>
        </mxCell>
        <mxCell id="X7Br8QIvCN059I1vGeU9-71" value="" style="endArrow=none;html=1;rounded=0;" edge="1" parent="1">
          <mxGeometry width="50" height="50" relative="1" as="geometry">
            <mxPoint x="1253.13" y="652.88" as="sourcePoint" />
            <mxPoint x="1253.5" y="632.88" as="targetPoint" />
          </mxGeometry>
        </mxCell>
        <mxCell id="X7Br8QIvCN059I1vGeU9-72" value="" style="endArrow=none;html=1;rounded=0;" edge="1" parent="1">
          <mxGeometry width="50" height="50" relative="1" as="geometry">
            <mxPoint x="1241.5" y="652.88" as="sourcePoint" />
            <mxPoint x="1241.87" y="632.88" as="targetPoint" />
          </mxGeometry>
        </mxCell>
        <mxCell id="X7Br8QIvCN059I1vGeU9-73" value="" style="endArrow=none;html=1;rounded=0;" edge="1" parent="1">
          <mxGeometry width="50" height="50" relative="1" as="geometry">
            <mxPoint x="1229.13" y="652.88" as="sourcePoint" />
            <mxPoint x="1229.5" y="632.88" as="targetPoint" />
          </mxGeometry>
        </mxCell>
        <mxCell id="X7Br8QIvCN059I1vGeU9-74" value="" style="endArrow=none;html=1;rounded=0;" edge="1" parent="1">
          <mxGeometry width="50" height="50" relative="1" as="geometry">
            <mxPoint x="1217.5" y="652.88" as="sourcePoint" />
            <mxPoint x="1217.87" y="632.88" as="targetPoint" />
          </mxGeometry>
        </mxCell>
        <mxCell id="X7Br8QIvCN059I1vGeU9-75" value="" style="endArrow=none;html=1;rounded=0;" edge="1" parent="1">
          <mxGeometry width="50" height="50" relative="1" as="geometry">
            <mxPoint x="1206.13" y="652.88" as="sourcePoint" />
            <mxPoint x="1206.5" y="632.88" as="targetPoint" />
          </mxGeometry>
        </mxCell>
        <mxCell id="X7Br8QIvCN059I1vGeU9-78" value="" style="endArrow=none;html=1;rounded=0;" edge="1" parent="1">
          <mxGeometry width="50" height="50" relative="1" as="geometry">
            <mxPoint x="1194.5" y="652.88" as="sourcePoint" />
            <mxPoint x="1194.87" y="632.88" as="targetPoint" />
          </mxGeometry>
        </mxCell>
        <mxCell id="X7Br8QIvCN059I1vGeU9-79" value="" style="endArrow=none;html=1;rounded=0;" edge="1" parent="1">
          <mxGeometry width="50" height="50" relative="1" as="geometry">
            <mxPoint x="1182.5" y="652.88" as="sourcePoint" />
            <mxPoint x="1182.87" y="632.88" as="targetPoint" />
          </mxGeometry>
        </mxCell>
        <mxCell id="X7Br8QIvCN059I1vGeU9-80" value="" style="endArrow=none;html=1;rounded=0;" edge="1" parent="1">
          <mxGeometry width="50" height="50" relative="1" as="geometry">
            <mxPoint x="1168.5" y="652.88" as="sourcePoint" />
            <mxPoint x="1168.87" y="632.88" as="targetPoint" />
          </mxGeometry>
        </mxCell>
        <mxCell id="X7Br8QIvCN059I1vGeU9-81" value="" style="endArrow=none;html=1;rounded=0;" edge="1" parent="1">
          <mxGeometry width="50" height="50" relative="1" as="geometry">
            <mxPoint x="1326.13" y="652.88" as="sourcePoint" />
            <mxPoint x="1326.5" y="632.88" as="targetPoint" />
          </mxGeometry>
        </mxCell>
        <mxCell id="X7Br8QIvCN059I1vGeU9-82" value="" style="endArrow=none;html=1;rounded=0;" edge="1" parent="1">
          <mxGeometry width="50" height="50" relative="1" as="geometry">
            <mxPoint x="1313.5" y="652.88" as="sourcePoint" />
            <mxPoint x="1313.87" y="632.88" as="targetPoint" />
          </mxGeometry>
        </mxCell>
        <mxCell id="X7Br8QIvCN059I1vGeU9-83" value="VSS&lt;div&gt;VDD&lt;/div&gt;&lt;div&gt;V0&lt;/div&gt;&lt;div&gt;RS&lt;/div&gt;&lt;div&gt;RW&lt;/div&gt;&lt;div&gt;E&lt;/div&gt;&lt;div&gt;D0&lt;/div&gt;&lt;div&gt;D1&lt;/div&gt;&lt;div&gt;D2&lt;/div&gt;&lt;div&gt;D3&lt;/div&gt;&lt;div&gt;D4&lt;/div&gt;&lt;div&gt;D5&lt;/div&gt;&lt;div&gt;D6&lt;/div&gt;&lt;div&gt;D7&lt;/div&gt;&lt;div&gt;A&lt;/div&gt;&lt;div&gt;K&lt;/div&gt;" style="text;html=1;align=right;verticalAlign=top;whiteSpace=wrap;rounded=0;rotation=-90;fontSize=10;" vertex="1" parent="1">
          <mxGeometry x="1201.62" y="610" width="59" height="145.75" as="geometry" />
        </mxCell>
        <mxCell id="X7Br8QIvCN059I1vGeU9-85" value="" style="endArrow=none;html=1;rounded=0;" edge="1" parent="1">
          <mxGeometry width="50" height="50" relative="1" as="geometry">
            <mxPoint x="1338.13" y="652.88" as="sourcePoint" />
            <mxPoint x="1338.5" y="632.88" as="targetPoint" />
          </mxGeometry>
        </mxCell>
        <mxCell id="X7Br8QIvCN059I1vGeU9-86" value="" style="endArrow=none;html=1;rounded=0;" edge="1" parent="1">
          <mxGeometry width="50" height="50" relative="1" as="geometry">
            <mxPoint x="1349.13" y="652.88" as="sourcePoint" />
            <mxPoint x="1349.5" y="632.88" as="targetPoint" />
          </mxGeometry>
        </mxCell>
        <mxCell id="X7Br8QIvCN059I1vGeU9-87" value="" style="endArrow=none;html=1;rounded=0;strokeColor=#00FF00;" edge="1" parent="1">
          <mxGeometry width="50" height="50" relative="1" as="geometry">
            <mxPoint x="850" y="640" as="sourcePoint" />
            <mxPoint x="1260" y="190" as="targetPoint" />
            <Array as="points">
              <mxPoint x="850.12" y="175" />
              <mxPoint x="1260.12" y="175" />
            </Array>
          </mxGeometry>
        </mxCell>
        <mxCell id="X7Br8QIvCN059I1vGeU9-88" value="" style="endArrow=none;html=1;rounded=0;" edge="1" parent="1">
          <mxGeometry width="50" height="50" relative="1" as="geometry">
            <mxPoint x="870.0027262834085" y="670.0019282457181" as="sourcePoint" />
            <mxPoint x="888.05" y="648.46" as="targetPoint" />
          </mxGeometry>
        </mxCell>
        <mxCell id="X7Br8QIvCN059I1vGeU9-89" value="" style="endArrow=none;html=1;rounded=0;" edge="1" parent="1">
          <mxGeometry width="50" height="50" relative="1" as="geometry">
            <mxPoint x="830.0027262834085" y="669.7719282457181" as="sourcePoint" />
            <mxPoint x="810" y="650" as="targetPoint" />
          </mxGeometry>
        </mxCell>
        <mxCell id="X7Br8QIvCN059I1vGeU9-90" value="Verteilerleiste&lt;div&gt;5V&lt;/div&gt;" style="verticalLabelPosition=bottom;shadow=0;dashed=0;align=center;html=1;verticalAlign=top;shape=mxgraph.electrical.transmission.cable_group;pointerEvents=1;fillColor=#FFFFFF;strokeColor=#FF0000;strokeWidth=2;" vertex="1" parent="1">
          <mxGeometry x="1490" y="440" width="50" height="74" as="geometry" />
        </mxCell>
        <mxCell id="X7Br8QIvCN059I1vGeU9-91" value="Verteilerleiste&lt;div&gt;Masse&lt;/div&gt;" style="verticalLabelPosition=bottom;shadow=0;dashed=0;align=center;html=1;verticalAlign=top;shape=mxgraph.electrical.transmission.cable_group;pointerEvents=1;strokeColor=#0000FF;strokeWidth=2;" vertex="1" parent="1">
          <mxGeometry x="1560" y="556" width="50" height="74" as="geometry" />
        </mxCell>
        <mxCell id="X7Br8QIvCN059I1vGeU9-93" value="" style="endArrow=none;html=1;rounded=0;exitX=0.5;exitY=0;exitDx=0;exitDy=0;exitPerimeter=0;strokeColor=#FF0000;strokeWidth=2;" edge="1" parent="1" source="X7Br8QIvCN059I1vGeU9-90">
          <mxGeometry width="50" height="50" relative="1" as="geometry">
            <mxPoint x="1510" y="430" as="sourcePoint" />
            <mxPoint x="1290" y="410" as="targetPoint" />
            <Array as="points">
              <mxPoint x="1515" y="430" />
              <mxPoint x="1290" y="430" />
            </Array>
          </mxGeometry>
        </mxCell>
        <mxCell id="X7Br8QIvCN059I1vGeU9-94" value="" style="endArrow=none;html=1;rounded=0;exitX=0.5;exitY=0;exitDx=0;exitDy=0;exitPerimeter=0;strokeColor=#0000FF;strokeWidth=2;" edge="1" parent="1" source="X7Br8QIvCN059I1vGeU9-91">
          <mxGeometry width="50" height="50" relative="1" as="geometry">
            <mxPoint x="1570" y="420" as="sourcePoint" />
            <mxPoint x="1300" y="410" as="targetPoint" />
            <Array as="points">
              <mxPoint x="1585" y="420" />
              <mxPoint x="1300" y="420" />
            </Array>
          </mxGeometry>
        </mxCell>
        <mxCell id="X7Br8QIvCN059I1vGeU9-96" value="" style="endArrow=none;html=1;rounded=0;entryX=1;entryY=0.5;entryDx=0;entryDy=0;entryPerimeter=0;strokeColor=#FF0000;" edge="1" parent="1" target="X7Br8QIvCN059I1vGeU9-65">
          <mxGeometry width="50" height="50" relative="1" as="geometry">
            <mxPoint x="1338.5" y="634" as="sourcePoint" />
            <mxPoint x="1338" y="610" as="targetPoint" />
          </mxGeometry>
        </mxCell>
        <mxCell id="X7Br8QIvCN059I1vGeU9-97" value="" style="endArrow=none;html=1;rounded=0;entryX=0;entryY=0.84;entryDx=0;entryDy=0;entryPerimeter=0;exitX=0;exitY=0.5;exitDx=0;exitDy=0;exitPerimeter=0;strokeColor=#FF0000;" edge="1" parent="1" source="X7Br8QIvCN059I1vGeU9-65" target="X7Br8QIvCN059I1vGeU9-90">
          <mxGeometry width="50" height="50" relative="1" as="geometry">
            <mxPoint x="1410" y="500" as="sourcePoint" />
            <mxPoint x="1490" y="500" as="targetPoint" />
            <Array as="points">
              <mxPoint x="1340" y="500" />
            </Array>
          </mxGeometry>
        </mxCell>
        <mxCell id="X7Br8QIvCN059I1vGeU9-98" value="" style="endArrow=none;html=1;rounded=0;entryX=0;entryY=0.67;entryDx=0;entryDy=0;entryPerimeter=0;strokeColor=#FF0000;" edge="1" parent="1">
          <mxGeometry width="50" height="50" relative="1" as="geometry">
            <mxPoint x="1183" y="490" as="sourcePoint" />
            <mxPoint x="1493" y="489.58000000000004" as="targetPoint" />
          </mxGeometry>
        </mxCell>
        <mxCell id="X7Br8QIvCN059I1vGeU9-99" value="" style="endArrow=none;html=1;rounded=0;strokeColor=#FF0000;" edge="1" parent="1">
          <mxGeometry width="50" height="50" relative="1" as="geometry">
            <mxPoint x="1183" y="642" as="sourcePoint" />
            <mxPoint x="1183" y="490" as="targetPoint" />
          </mxGeometry>
        </mxCell>
        <mxCell id="X7Br8QIvCN059I1vGeU9-100" value="" style="endArrow=none;html=1;rounded=0;entryX=0;entryY=0.16;entryDx=0;entryDy=0;entryPerimeter=0;strokeColor=#0000FF;" edge="1" parent="1" target="X7Br8QIvCN059I1vGeU9-91">
          <mxGeometry width="50" height="50" relative="1" as="geometry">
            <mxPoint x="1169" y="568" as="sourcePoint" />
            <mxPoint x="1559" y="568" as="targetPoint" />
          </mxGeometry>
        </mxCell>
        <mxCell id="X7Br8QIvCN059I1vGeU9-104" value="" style="endArrow=none;html=1;rounded=0;strokeColor=#0000FF;" edge="1" parent="1">
          <mxGeometry width="50" height="50" relative="1" as="geometry">
            <mxPoint x="1169" y="640" as="sourcePoint" />
            <mxPoint x="1169" y="567" as="targetPoint" />
          </mxGeometry>
        </mxCell>
        <mxCell id="X7Br8QIvCN059I1vGeU9-107" value="" style="endArrow=none;html=1;rounded=0;exitX=1;exitY=0.25;exitDx=0;exitDy=0;exitPerimeter=0;entryX=0;entryY=0.33;entryDx=0;entryDy=0;entryPerimeter=0;strokeColor=#0000FF;" edge="1" parent="1" source="kQlwVw8OVMAgD6LODriY-3" target="X7Br8QIvCN059I1vGeU9-91">
          <mxGeometry width="50" height="50" relative="1" as="geometry">
            <mxPoint x="1280" y="600" as="sourcePoint" />
            <mxPoint x="1530" y="590" as="targetPoint" />
            <Array as="points">
              <mxPoint x="1210" y="500" />
              <mxPoint x="1210" y="580" />
            </Array>
          </mxGeometry>
        </mxCell>
        <mxCell id="X7Br8QIvCN059I1vGeU9-108" value="" style="endArrow=none;html=1;rounded=0;strokeColor=#FF0080;" edge="1" parent="1">
          <mxGeometry width="50" height="50" relative="1" as="geometry">
            <mxPoint x="1290" y="200" as="sourcePoint" />
            <mxPoint x="1207" y="640" as="targetPoint" />
            <Array as="points">
              <mxPoint x="1290" y="160" />
              <mxPoint x="1117" y="160" />
              <mxPoint x="1117" y="600" />
              <mxPoint x="1207" y="600" />
            </Array>
          </mxGeometry>
        </mxCell>
        <mxCell id="X7Br8QIvCN059I1vGeU9-109" value="" style="endArrow=none;html=1;rounded=0;entryX=0;entryY=0.5;entryDx=0;entryDy=0;entryPerimeter=0;fillColor=#f8cecc;strokeColor=#0000FF;" edge="1" parent="1" target="X7Br8QIvCN059I1vGeU9-91">
          <mxGeometry width="50" height="50" relative="1" as="geometry">
            <mxPoint x="1218" y="640" as="sourcePoint" />
            <mxPoint x="1558" y="593" as="targetPoint" />
            <Array as="points">
              <mxPoint x="1218" y="593" />
            </Array>
          </mxGeometry>
        </mxCell>
        <mxCell id="X7Br8QIvCN059I1vGeU9-111" value="" style="endArrow=none;html=1;rounded=0;strokeColor=#FF0080;" edge="1" parent="1">
          <mxGeometry width="50" height="50" relative="1" as="geometry">
            <mxPoint x="1300" y="200" as="sourcePoint" />
            <mxPoint x="1230" y="640" as="targetPoint" />
            <Array as="points">
              <mxPoint x="1300" y="150" />
              <mxPoint x="1110" y="150" />
              <mxPoint x="1110" y="560" />
              <mxPoint x="1230" y="560" />
            </Array>
          </mxGeometry>
        </mxCell>
        <mxCell id="X7Br8QIvCN059I1vGeU9-112" value="" style="endArrow=none;html=1;rounded=0;strokeColor=#FF0080;" edge="1" parent="1">
          <mxGeometry width="50" height="50" relative="1" as="geometry">
            <mxPoint x="1320.25" y="195" as="sourcePoint" />
            <mxPoint x="1290" y="640" as="targetPoint" />
            <Array as="points">
              <mxPoint x="1320" y="150" />
              <mxPoint x="1410" y="150" />
              <mxPoint x="1410" y="550" />
              <mxPoint x="1290" y="550" />
            </Array>
          </mxGeometry>
        </mxCell>
        <mxCell id="X7Br8QIvCN059I1vGeU9-113" value="" style="endArrow=none;html=1;rounded=0;strokeColor=#FF0080;" edge="1" parent="1">
          <mxGeometry width="50" height="50" relative="1" as="geometry">
            <mxPoint x="1330" y="200" as="sourcePoint" />
            <mxPoint x="1302" y="640" as="targetPoint" />
            <Array as="points">
              <mxPoint x="1330" y="160" />
              <mxPoint x="1422" y="160" />
              <mxPoint x="1422" y="560" />
              <mxPoint x="1302" y="560" />
            </Array>
          </mxGeometry>
        </mxCell>
        <mxCell id="X7Br8QIvCN059I1vGeU9-114" value="" style="endArrow=none;html=1;rounded=0;strokeColor=#FF0080;" edge="1" parent="1">
          <mxGeometry width="50" height="50" relative="1" as="geometry">
            <mxPoint x="1314" y="640" as="sourcePoint" />
            <mxPoint x="1340" y="200" as="targetPoint" />
            <Array as="points">
              <mxPoint x="1314" y="600" />
              <mxPoint x="1430" y="600" />
              <mxPoint x="1430" y="170" />
              <mxPoint x="1340" y="170" />
            </Array>
          </mxGeometry>
        </mxCell>
        <mxCell id="X7Br8QIvCN059I1vGeU9-115" value="" style="endArrow=none;html=1;rounded=0;strokeColor=#FF0080;" edge="1" parent="1">
          <mxGeometry width="50" height="50" relative="1" as="geometry">
            <mxPoint x="1326" y="640" as="sourcePoint" />
            <mxPoint x="1350" y="200" as="targetPoint" />
            <Array as="points">
              <mxPoint x="1326" y="610" />
              <mxPoint x="1440" y="610" />
              <mxPoint x="1440" y="180" />
              <mxPoint x="1350" y="180" />
            </Array>
          </mxGeometry>
        </mxCell>
        <mxCell id="X7Br8QIvCN059I1vGeU9-116" value="" style="endArrow=none;html=1;rounded=0;entryX=0;entryY=0.84;entryDx=0;entryDy=0;entryPerimeter=0;strokeColor=#0000FF;" edge="1" parent="1" target="X7Br8QIvCN059I1vGeU9-91">
          <mxGeometry width="50" height="50" relative="1" as="geometry">
            <mxPoint x="1349" y="640" as="sourcePoint" />
            <mxPoint x="1559" y="618.16" as="targetPoint" />
            <Array as="points">
              <mxPoint x="1349" y="618" />
            </Array>
          </mxGeometry>
        </mxCell>
        <mxCell id="X7Br8QIvCN059I1vGeU9-117" value="" style="endArrow=none;html=1;rounded=0;" edge="1" parent="1">
          <mxGeometry width="50" height="50" relative="1" as="geometry">
            <mxPoint x="849.8" y="670" as="sourcePoint" />
            <mxPoint x="849.8" y="640" as="targetPoint" />
          </mxGeometry>
        </mxCell>
        <mxCell id="X7Br8QIvCN059I1vGeU9-118" value="" style="endArrow=none;html=1;rounded=0;entryX=0;entryY=0.5;entryDx=0;entryDy=0;entryPerimeter=0;strokeColor=#FF0000;" edge="1" parent="1" target="X7Br8QIvCN059I1vGeU9-90">
          <mxGeometry width="50" height="50" relative="1" as="geometry">
            <mxPoint x="888" y="650" as="sourcePoint" />
            <mxPoint x="890" y="450" as="targetPoint" />
            <Array as="points">
              <mxPoint x="888" y="477" />
            </Array>
          </mxGeometry>
        </mxCell>
        <mxCell id="X7Br8QIvCN059I1vGeU9-119" value="" style="endArrow=none;html=1;rounded=0;entryX=0;entryY=0.67;entryDx=0;entryDy=0;entryPerimeter=0;fillColor=#f8cecc;strokeColor=#0000FF;" edge="1" parent="1" target="X7Br8QIvCN059I1vGeU9-91">
          <mxGeometry width="50" height="50" relative="1" as="geometry">
            <mxPoint x="810" y="650" as="sourcePoint" />
            <mxPoint x="1450" y="610" as="targetPoint" />
            <Array as="points">
              <mxPoint x="810" y="460" />
              <mxPoint x="1450" y="460" />
              <mxPoint x="1450" y="606" />
            </Array>
          </mxGeometry>
        </mxCell>
        <mxCell id="X7Br8QIvCN059I1vGeU9-120" value="&lt;span style=&quot;font-size: 14px;&quot;&gt;CO&lt;/span&gt;&lt;span style=&quot;font-size: 11.6667px;&quot;&gt;2&lt;/span&gt;&lt;div&gt;&lt;span style=&quot;font-size: 14px;&quot;&gt;Sensor&lt;/span&gt;&lt;/div&gt;" style="verticalLabelPosition=middle;shadow=0;dashed=0;align=center;html=1;verticalAlign=middle;strokeWidth=1;shape=ellipse;fontSize=32;perimeter=ellipsePerimeter;" vertex="1" parent="1">
          <mxGeometry x="1790" y="556" width="100" height="100" as="geometry" />
        </mxCell>
        <mxCell id="X7Br8QIvCN059I1vGeU9-121" value="" style="endArrow=none;html=1;rounded=0;" edge="1" parent="1">
          <mxGeometry width="50" height="50" relative="1" as="geometry">
            <mxPoint x="1780" y="610" as="sourcePoint" />
            <mxPoint x="1800" y="609.6" as="targetPoint" />
          </mxGeometry>
        </mxCell>
        <mxCell id="X7Br8QIvCN059I1vGeU9-122" value="" style="endArrow=none;html=1;rounded=0;" edge="1" parent="1">
          <mxGeometry width="50" height="50" relative="1" as="geometry">
            <mxPoint x="1780" y="620" as="sourcePoint" />
            <mxPoint x="1800" y="619.6" as="targetPoint" />
          </mxGeometry>
        </mxCell>
        <mxCell id="X7Br8QIvCN059I1vGeU9-123" value="" style="endArrow=none;html=1;rounded=0;" edge="1" parent="1">
          <mxGeometry width="50" height="50" relative="1" as="geometry">
            <mxPoint x="1780" y="630.4" as="sourcePoint" />
            <mxPoint x="1800" y="630" as="targetPoint" />
          </mxGeometry>
        </mxCell>
        <mxCell id="X7Br8QIvCN059I1vGeU9-124" value="" style="endArrow=none;html=1;rounded=0;" edge="1" parent="1">
          <mxGeometry width="50" height="50" relative="1" as="geometry">
            <mxPoint x="1780" y="600.1999999999999" as="sourcePoint" />
            <mxPoint x="1800" y="599.8" as="targetPoint" />
          </mxGeometry>
        </mxCell>
        <mxCell id="X7Br8QIvCN059I1vGeU9-125" value="" style="endArrow=none;html=1;rounded=0;" edge="1" parent="1">
          <mxGeometry width="50" height="50" relative="1" as="geometry">
            <mxPoint x="1780" y="590.4" as="sourcePoint" />
            <mxPoint x="1800" y="590" as="targetPoint" />
          </mxGeometry>
        </mxCell>
        <mxCell id="X7Br8QIvCN059I1vGeU9-126" value="" style="endArrow=none;html=1;rounded=0;" edge="1" parent="1">
          <mxGeometry width="50" height="50" relative="1" as="geometry">
            <mxPoint x="1880" y="600.9" as="sourcePoint" />
            <mxPoint x="1900" y="600.5" as="targetPoint" />
          </mxGeometry>
        </mxCell>
        <mxCell id="X7Br8QIvCN059I1vGeU9-127" value="" style="endArrow=none;html=1;rounded=0;" edge="1" parent="1">
          <mxGeometry width="50" height="50" relative="1" as="geometry">
            <mxPoint x="1880" y="610.9" as="sourcePoint" />
            <mxPoint x="1900" y="610.5" as="targetPoint" />
          </mxGeometry>
        </mxCell>
        <mxCell id="X7Br8QIvCN059I1vGeU9-128" value="" style="endArrow=none;html=1;rounded=0;" edge="1" parent="1">
          <mxGeometry width="50" height="50" relative="1" as="geometry">
            <mxPoint x="1880" y="621.3" as="sourcePoint" />
            <mxPoint x="1900" y="620.9" as="targetPoint" />
          </mxGeometry>
        </mxCell>
        <mxCell id="X7Br8QIvCN059I1vGeU9-129" value="" style="endArrow=none;html=1;rounded=0;" edge="1" parent="1">
          <mxGeometry width="50" height="50" relative="1" as="geometry">
            <mxPoint x="1880" y="591.0999999999999" as="sourcePoint" />
            <mxPoint x="1900" y="590.6999999999999" as="targetPoint" />
          </mxGeometry>
        </mxCell>
        <mxCell id="X7Br8QIvCN059I1vGeU9-130" value="HD&lt;div&gt;&lt;br&gt;&lt;/div&gt;&lt;div&gt;TX&lt;/div&gt;&lt;div&gt;RX&lt;/div&gt;" style="text;html=1;align=left;verticalAlign=top;whiteSpace=wrap;rounded=0;fontSize=10;" vertex="1" parent="1">
          <mxGeometry x="1800" y="575" width="30" height="50" as="geometry" />
        </mxCell>
        <mxCell id="X7Br8QIvCN059I1vGeU9-131" value="PWM&lt;div&gt;&lt;br&gt;&lt;/div&gt;&lt;div&gt;GND&lt;/div&gt;&lt;div&gt;Vin&lt;/div&gt;" style="text;html=1;align=right;verticalAlign=top;whiteSpace=wrap;rounded=0;fontSize=10;" vertex="1" parent="1">
          <mxGeometry x="1850" y="575" width="30" height="50" as="geometry" />
        </mxCell>
        <mxCell id="X7Br8QIvCN059I1vGeU9-132" value="" style="endArrow=none;html=1;rounded=0;strokeColor=#00FF00;" edge="1" parent="1">
          <mxGeometry width="50" height="50" relative="1" as="geometry">
            <mxPoint x="1360" y="190" as="sourcePoint" />
            <mxPoint x="1790" y="610" as="targetPoint" />
            <Array as="points">
              <mxPoint x="1360" y="140" />
              <mxPoint x="1710" y="140" />
              <mxPoint x="1710" y="610" />
            </Array>
          </mxGeometry>
        </mxCell>
        <mxCell id="X7Br8QIvCN059I1vGeU9-133" value="" style="endArrow=none;html=1;rounded=0;strokeColor=#FF0080;" edge="1" parent="1">
          <mxGeometry width="50" height="50" relative="1" as="geometry">
            <mxPoint x="1370" y="190" as="sourcePoint" />
            <mxPoint x="1780" y="620" as="targetPoint" />
            <Array as="points">
              <mxPoint x="1370" y="130" />
              <mxPoint x="1700" y="130" />
              <mxPoint x="1700" y="620" />
            </Array>
          </mxGeometry>
        </mxCell>
        <mxCell id="X7Br8QIvCN059I1vGeU9-134" value="" style="endArrow=none;html=1;rounded=0;entryX=1;entryY=0.84;entryDx=0;entryDy=0;entryPerimeter=0;strokeColor=#FF0000;" edge="1" parent="1" target="X7Br8QIvCN059I1vGeU9-90">
          <mxGeometry width="50" height="50" relative="1" as="geometry">
            <mxPoint x="1899" y="621" as="sourcePoint" />
            <mxPoint x="1539.0000000000002" y="503.15999999999997" as="targetPoint" />
            <Array as="points">
              <mxPoint x="1929" y="621" />
              <mxPoint x="1929" y="681" />
              <mxPoint x="1659" y="681" />
              <mxPoint x="1660" y="500" />
            </Array>
          </mxGeometry>
        </mxCell>
        <mxCell id="X7Br8QIvCN059I1vGeU9-135" value="" style="endArrow=none;html=1;rounded=0;entryX=1;entryY=0.84;entryDx=0;entryDy=0;entryPerimeter=0;strokeColor=#0000FF;" edge="1" parent="1">
          <mxGeometry width="50" height="50" relative="1" as="geometry">
            <mxPoint x="1899" y="611" as="sourcePoint" />
            <mxPoint x="1609" y="619.1600000000001" as="targetPoint" />
            <Array as="points">
              <mxPoint x="1939" y="611" />
              <mxPoint x="1939" y="691" />
              <mxPoint x="1649" y="691" />
              <mxPoint x="1649" y="621" />
            </Array>
          </mxGeometry>
        </mxCell>
        <mxCell id="X7Br8QIvCN059I1vGeU9-136" value="Legende" style="swimlane;fontStyle=0;childLayout=stackLayout;horizontal=1;startSize=30;horizontalStack=0;resizeParent=1;resizeParentMax=0;resizeLast=0;collapsible=1;marginBottom=0;whiteSpace=wrap;html=1;" vertex="1" parent="1">
          <mxGeometry x="1790" y="190" width="190" height="180" as="geometry" />
        </mxCell>
        <mxCell id="X7Br8QIvCN059I1vGeU9-137" value="5 Volt + Leitung" style="text;strokeColor=#b85450;fillColor=#FF0000;align=left;verticalAlign=middle;spacingLeft=4;spacingRight=4;overflow=hidden;points=[[0,0.5],[1,0.5]];portConstraint=eastwest;rotatable=0;whiteSpace=wrap;html=1;" vertex="1" parent="X7Br8QIvCN059I1vGeU9-136">
          <mxGeometry y="30" width="190" height="30" as="geometry" />
        </mxCell>
        <mxCell id="X7Br8QIvCN059I1vGeU9-138" value="Masseleitung" style="text;strokeColor=#6c8ebf;fillColor=#0000FF;align=left;verticalAlign=middle;spacingLeft=4;spacingRight=4;overflow=hidden;points=[[0,0.5],[1,0.5]];portConstraint=eastwest;rotatable=0;whiteSpace=wrap;html=1;" vertex="1" parent="X7Br8QIvCN059I1vGeU9-136">
          <mxGeometry y="60" width="190" height="30" as="geometry" />
        </mxCell>
        <mxCell id="X7Br8QIvCN059I1vGeU9-140" value="Datenleitung Arduino empfängt" style="text;strokeColor=#00FF00;fillColor=#00FF00;align=left;verticalAlign=middle;spacingLeft=4;spacingRight=4;overflow=hidden;points=[[0,0.5],[1,0.5]];portConstraint=eastwest;rotatable=0;whiteSpace=wrap;html=1;" vertex="1" parent="X7Br8QIvCN059I1vGeU9-136">
          <mxGeometry y="90" width="190" height="30" as="geometry" />
        </mxCell>
        <mxCell id="X7Br8QIvCN059I1vGeU9-141" value="Datenleitung Arduino sendet" style="text;strokeColor=#d6b656;fillColor=#FF0080;align=left;verticalAlign=middle;spacingLeft=4;spacingRight=4;overflow=hidden;points=[[0,0.5],[1,0.5]];portConstraint=eastwest;rotatable=0;whiteSpace=wrap;html=1;" vertex="1" parent="X7Br8QIvCN059I1vGeU9-136">
          <mxGeometry y="120" width="190" height="30" as="geometry" />
        </mxCell>
        <mxCell id="X7Br8QIvCN059I1vGeU9-139" value="Item 3" style="text;strokeColor=none;fillColor=none;align=left;verticalAlign=middle;spacingLeft=4;spacingRight=4;overflow=hidden;points=[[0,0.5],[1,0.5]];portConstraint=eastwest;rotatable=0;whiteSpace=wrap;html=1;" vertex="1" parent="X7Br8QIvCN059I1vGeU9-136">
          <mxGeometry y="150" width="190" height="30" as="geometry" />
        </mxCell>
      </root>
    </mxGraphModel>
  </diagram>
</mxfile>
